<svg xmlns="http://www.w3.org/2000/svg" version="1.1" xmlns:xlink="http://www.w3.org/1999/xlink" xmlns:svgjs="http://svgjs.dev/svgjs" width="1000" height="1000" viewBox="0 0 1000 1000"><rect width="1000" height="1000" fill="#ffffff"></rect><g transform="matrix(0.7,0,0,0.7,149.57575757575756,426.5041231664396)"><svg viewBox="0 0 396 83" data-background-color="#ffffff" preserveAspectRatio="xMidYMid meet" height="209" width="1000" xmlns="http://www.w3.org/2000/svg" xmlns:xlink="http://www.w3.org/1999/xlink"><g id="tight-bounds" transform="matrix(1,0,0,1,0.2400000000000091,0.19622540796660815)"><svg viewBox="0 0 395.52 82.60754918406676" height="82.60754918406676" width="395.52"><g><svg viewBox="0 0 482.60298140137195 100.7955337846154" height="82.60754918406676" width="395.52"><g transform="matrix(1,0,0,1,87.08298140137188,31.14728297622378)"><svg viewBox="0 0 395.52000000000004 38.50096783216784" height="38.50096783216784" width="395.52000000000004"><g id="textblocktransform"><svg viewBox="0 0 395.52000000000004 38.50096783216784" height="38.50096783216784" width="395.52000000000004" id="textblock"><g><svg viewBox="0 0 395.52000000000004 38.50096783216784" height="38.50096783216784" width="395.52000000000004"><g transform="matrix(1,0,0,1,0,0)"><svg width="395.52000000000004" viewBox="1.5499999523162842 -34.349998474121094 357.4700012207031 34.79999923706055" height="38.50096783216784" data-palette-color="#883d1a"><path d="M11.65-14.25L11.65-14.25 11.1-12.55 21.9-12.55 21.35-14.25Q19.45-20.15 18.25-24.03 17.05-27.9 16.8-28.85L16.8-28.85 16.55-29.8Q16-27.45 11.65-14.25ZM9.7-8.25L7 0 1.55 0 13.2-33.7 19.95-33.7 31.45 0 25.95 0 23.3-8.25 9.7-8.25ZM49.6 0L49.6 0 36.65 0 36.65-33.7 47.7-33.7Q53-33.7 56.05-31.23 59.1-28.75 59.1-24.7L59.1-24.7Q59.1-21.9 57.52-19.8 55.95-17.7 53.5-17.1L53.5-17.1Q56.25-16.6 58.12-14.55 60-12.5 60-9.05L60-9.05Q60-5.05 57.27-2.53 54.55 0 49.6 0ZM47.3-29.45L47.3-29.45 41.8-29.45 41.8-19.1 46.45-19.1Q50.2-19.1 52.02-20.63 53.85-22.15 53.85-24.6L53.85-24.6Q53.85-26.75 52.22-28.1 50.6-29.45 47.3-29.45ZM47.9-14.9L47.9-14.9 41.8-14.9 41.8-4.25 48.4-4.25Q54.75-4.25 54.75-9.5L54.75-9.5Q54.75-12.05 53.02-13.48 51.3-14.9 47.9-14.9ZM71.2-33.7L71.2 0 66.09 0 66.09-33.7 71.2-33.7ZM104.34-29.63Q108.49-24.9 108.49-17 108.49-9.1 104.32-4.35 100.14 0.4 93.04 0.4L93.04 0.4Q85.99 0.4 81.77-4.35 77.54-9.1 77.54-17L77.54-17Q77.54-24.85 81.74-29.6 85.94-34.35 92.99-34.35L92.99-34.35Q100.19-34.35 104.34-29.63ZM85.62-26.18Q82.94-22.8 82.94-17 82.94-11.2 85.69-7.8 88.44-4.4 93.04-4.4L93.04-4.4Q97.79-4.4 100.44-7.75 103.09-11.1 103.09-17L103.09-17Q103.09-22.85 100.42-26.2 97.74-29.55 92.99-29.55L92.99-29.55Q88.29-29.55 85.62-26.18ZM125.04 0L125.04 0 114.44 0 114.44-33.7 124.94-33.7Q132.44-33.7 137.24-29.05 142.04-24.4 142.04-17.2L142.04-17.2Q142.04-9.7 137.52-4.85 132.99 0 125.04 0ZM124.84-29.3L124.84-29.3 119.69-29.3 119.69-4.35 124.99-4.35Q130.74-4.35 133.74-7.95 136.74-11.55 136.74-17.2L136.74-17.2Q136.74-22.4 133.49-25.85 130.24-29.3 124.84-29.3ZM173.19-33.7L173.19-12.9Q173.19-6.35 169.79-2.95 166.39 0.45 160.39 0.45L160.39 0.45Q154.49 0.45 151.09-2.88 147.69-6.2 147.69-12.5L147.69-12.5 147.69-33.7 152.84-33.7 152.84-12.55Q152.84-8.25 154.91-6.28 156.99-4.3 160.39-4.3L160.39-4.3Q168.04-4.3 168.04-12.8L168.04-12.8 168.04-33.7 173.19-33.7ZM185.54-14.1L185.54 0 180.39 0 180.39-33.7 186.49-33.7 194.79-19.6Q197.09-15.65 198.96-12.3 200.84-8.95 201.54-7.6L201.54-7.6 202.24-6.2Q201.94-10.75 201.94-19.55L201.94-19.55 201.94-33.7 207.09-33.7 207.09 0 200.99 0 192.64-14.05Q190.39-17.85 188.51-21.23 186.64-24.6 185.89-26.1L185.89-26.1 185.14-27.55Q185.54-22.55 185.54-14.1L185.54-14.1ZM239.63 0L239.63 0 226.68 0 226.68-33.7 237.73-33.7Q243.03-33.7 246.08-31.23 249.13-28.75 249.13-24.7L249.13-24.7Q249.13-21.9 247.56-19.8 245.98-17.7 243.53-17.1L243.53-17.1Q246.28-16.6 248.16-14.55 250.03-12.5 250.03-9.05L250.03-9.05Q250.03-5.05 247.31-2.53 244.58 0 239.63 0ZM237.33-29.45L237.33-29.45 231.83-29.45 231.83-19.1 236.48-19.1Q240.23-19.1 242.06-20.63 243.88-22.15 243.88-24.6L243.88-24.6Q243.88-26.75 242.26-28.1 240.63-29.45 237.33-29.45ZM237.93-14.9L237.93-14.9 231.83-14.9 231.83-4.25 238.43-4.25Q244.78-4.25 244.78-9.5L244.78-9.5Q244.78-12.05 243.06-13.48 241.33-14.9 237.93-14.9ZM275.18-4.3L275.18 0 255.73 0 255.73-33.7 274.93-33.7 274.93-29.4 260.88-29.4 260.88-19 273.33-19 273.33-14.7 260.88-14.7 260.88-4.3 275.18-4.3ZM300.38-4.55L300.38 0 281.43 0 281.43-33.7 286.58-33.7 286.58-4.55 300.38-4.55ZM324.37-4.55L324.37 0 305.42 0 305.42-33.7 310.57-33.7 310.57-4.55 324.37-4.55ZM354.87-29.63Q359.02-24.9 359.02-17 359.02-9.1 354.85-4.35 350.67 0.4 343.57 0.4L343.57 0.4Q336.52 0.4 332.3-4.35 328.07-9.1 328.07-17L328.07-17Q328.07-24.85 332.27-29.6 336.47-34.35 343.52-34.35L343.52-34.35Q350.72-34.35 354.87-29.63ZM336.15-26.18Q333.47-22.8 333.47-17 333.47-11.2 336.22-7.8 338.97-4.4 343.57-4.4L343.57-4.4Q348.32-4.4 350.97-7.75 353.62-11.1 353.62-17L353.62-17Q353.62-22.85 350.95-26.2 348.27-29.55 343.52-29.55L343.52-29.55Q338.82-29.55 336.15-26.18Z" opacity="1" transform="matrix(1,0,0,1,0,0)" fill="#883d1a" class="wordmark-text-0" data-fill-palette-color="primary" id="text-0"></path></svg></g></svg></g></svg></g></svg></g><g><svg viewBox="0 0 77.99382691942503 100.7955337846154" height="100.7955337846154" width="77.99382691942503"><g><svg xmlns="http://www.w3.org/2000/svg" xmlns:xlink="http://www.w3.org/1999/xlink" version="1.1" x="0" y="0" viewBox="12.982999801635742 1 75.68599700927734 97.81300354003906" enable-background="new 0 0 100 100" xml:space="preserve" height="100.7955337846154" width="77.99382691942503" class="icon-icon-0" data-fill-palette-color="accent" id="icon-0"><g fill="#4d331f" data-fill-palette-color="accent"><polygon fill-rule="evenodd" clip-rule="evenodd" points="12.983,10.59 30.001,98.813 24.129,39.764 53.15,37.872 53.096,27.989    64.549,1 53.622,18.977  " fill="#4d331f" data-fill-palette-color="accent"></polygon><polygon fill-rule="evenodd" clip-rule="evenodd" points="59.389,54.548 64.549,1.007 55.809,40.723 36.197,41.768 37.767,62.23    30.001,98.813 42.058,58.914  " fill="#4d331f" data-fill-palette-color="accent"></polygon><polygon fill-rule="evenodd" clip-rule="evenodd" points="62.8,67.182 63.349,56.729 47.37,60.484 47.338,72.281 30.001,98.813    51.681,71.197  " fill="#4d331f" data-fill-palette-color="accent"></polygon><polygon fill-rule="evenodd" clip-rule="evenodd" points="65.711,62.394 80.552,57.663 82.061,45.131 66.162,47.226  " fill="#4d331f" data-fill-palette-color="accent"></polygon><polygon fill-rule="evenodd" clip-rule="evenodd" points="72.07,44.502 83.058,43.085 84.639,32.807 76.56,32.434 64.549,1    72.979,31.967  " fill="#4d331f" data-fill-palette-color="accent"></polygon><polygon fill-rule="evenodd" clip-rule="evenodd" points="87.413,31.294 88.669,21.788 79.125,19.094 64.549,1 79.032,23.437    78.61,30.437  " fill="#4d331f" data-fill-palette-color="accent"></polygon></g></svg></g></svg></g></svg></g><defs></defs></svg><rect width="395.52" height="82.60754918406676" fill="none" stroke="none" visibility="hidden"></rect></g></svg></g></svg>